<?xml version="1.0" encoding="utf-8"?>
<!-- Generator: Adobe Illustrator 19.2.1, SVG Export Plug-In . SVG Version: 6.00 Build 0)  -->
<svg version="1.1" id="Layer_1" xmlns="http://www.w3.org/2000/svg" xmlns:xlink="http://www.w3.org/1999/xlink" x="0px" y="0px"
	 viewBox="0 0 32 32" style="enable-background:new 0 0 32 32;" xml:space="preserve">
<style type="text/css">
	.st0{fill:#FFFFFF;}
	.st1{fill:#88D8B0;}
</style>
<g>
	<path class="st0" d="M16,23.5v3c0,2.5-2,4.5-4.5,4.5h0c-2.5,0-4.5-2-4.5-4.5V9.1c0-2.8,2.2-5,5-5h6.5c1.4,0,2.7,0.1,4,0.4
		C23.8,4.9,25,5.3,26,6c1,0.7,1.9,1.6,2.5,2.8c0.6,1.1,0.9,2.6,0.9,4.3c0,1.7-0.3,3.1-0.9,4.2c-0.6,1.2-1.4,2.1-2.5,2.8
		c-1,0.7-2.2,1.3-3.5,1.6c-1.3,0.3-2.7,0.5-4.1,0.5h-1.4C16.5,22.3,16,22.8,16,23.5z M16,12.3v2c0,0.6,0.5,1.2,1.2,1.2h0.7
		c0.7,0,1.3-0.2,1.9-0.5c0.6-0.3,0.9-0.9,0.9-1.7c0-0.4-0.1-0.8-0.2-1c-0.2-0.3-0.4-0.5-0.6-0.6c-0.3-0.2-0.6-0.3-0.9-0.3
		c-0.3-0.1-0.7-0.1-1-0.1h-0.7C16.5,11.1,16,11.7,16,12.3z"/>
	<path class="st1" d="M13.9,21.7v3c0,2.5-2,4.5-4.5,4.5h0c-2.5,0-4.5-2-4.5-4.5V7.4c0-2.8,2.2-5,5-5h6.5c1.4,0,2.7,0.1,4,0.4
		c1.3,0.3,2.5,0.8,3.5,1.5c1,0.7,1.9,1.6,2.5,2.8c0.6,1.1,0.9,2.6,0.9,4.3c0,1.7-0.3,3.1-0.9,4.2c-0.6,1.2-1.4,2.1-2.5,2.8
		c-1,0.7-2.2,1.3-3.5,1.6c-1.3,0.3-2.7,0.5-4.1,0.5H15C14.4,20.6,13.9,21.1,13.9,21.7z M13.9,10.5v2c0,0.6,0.5,1.2,1.2,1.2h0.7
		c0.7,0,1.3-0.2,1.9-0.5c0.6-0.3,0.9-0.9,0.9-1.7c0-0.4-0.1-0.8-0.2-1c-0.2-0.3-0.4-0.5-0.6-0.6c-0.3-0.2-0.6-0.3-0.9-0.3
		c-0.3-0.1-0.7-0.1-1-0.1H15C14.4,9.4,13.9,9.9,13.9,10.5z"/>
</g>
</svg>
