<?xml version="1.0" encoding="utf-8"?>
<!-- Generator: Adobe Illustrator 19.2.1, SVG Export Plug-In . SVG Version: 6.00 Build 0)  -->
<svg version="1.1" id="Layer_1" xmlns="http://www.w3.org/2000/svg" xmlns:xlink="http://www.w3.org/1999/xlink" x="0px" y="0px"
	 viewBox="0 0 800 114" style="enable-background:new 0 0 800 114;" xml:space="preserve">
<style type="text/css">
	.st0{fill:none;stroke:#000000;stroke-width:22;stroke-miterlimit:10;}
	.st1{fill:#FFFFFF;}
	.st2{fill:none;stroke:#000000;stroke-width:7;stroke-linecap:round;stroke-linejoin:round;stroke-miterlimit:10;}
	.st3{fill:none;stroke:#FFFFFF;stroke-width:5;stroke-linecap:round;stroke-linejoin:round;stroke-miterlimit:10;}
</style>
<g>
	<path class="st1" d="M45.7,74.7v8.5C45.7,90.3,40,96,33,96h0c-7.1,0-12.8-5.7-12.8-12.8V33.8c0-7.9,6.4-14.2,14.2-14.2H53
		c3.9,0,7.7,0.4,11.4,1.2c3.7,0.8,7.1,2.2,10,4.2c3,2,5.3,4.6,7.1,7.9c1.8,3.3,2.7,7.4,2.7,12.4c0,4.8-0.9,8.8-2.6,12.1
		c-1.8,3.3-4.1,6-7,8.1c-2.9,2.1-6.3,3.6-10,4.5c-3.8,0.9-7.6,1.4-11.6,1.4H49C47.2,71.4,45.7,72.9,45.7,74.7z M45.7,42.9v5.7
		c0,1.8,1.5,3.3,3.3,3.3h2.1c1.9,0,3.7-0.5,5.3-1.5c1.6-1,2.4-2.6,2.4-4.9c0-1.2-0.2-2.2-0.6-3c-0.4-0.8-1-1.3-1.8-1.8
		c-0.8-0.4-1.6-0.7-2.5-0.9c-0.9-0.2-1.9-0.3-2.8-0.3H49C47.2,39.6,45.7,41.1,45.7,42.9z"/>
	<path class="st1" d="M95.9,33.8c0-7.8,6.4-14.2,14.2-14.2h18.7c3.7,0,7.5,0.4,11.2,1.1c3.7,0.8,7,2.1,9.9,4
		c2.9,1.9,5.3,4.5,7.1,7.7c1.8,3.2,2.7,7.2,2.7,12c0,4.7-1.1,8.8-3.4,12.4c-2.3,3.6-5.6,6.3-9.9,8.3l7.6,12.2
		c5.1,8.2-0.8,18.8-10.4,18.8h0c-4.5,0-8.7-2.5-10.8-6.5c-4.3-8.1-11.2-20.8-11.2-20.8h-0.8v14.8c0,6.9-5.6,12.5-12.5,12.5h0
		c-6.9,0-12.5-5.6-12.5-12.5V33.8z M120.6,48.6c0,1.8,1.5,3.3,3.3,3.3h1.7c0.9,0,1.8-0.1,2.8-0.2c1-0.1,2-0.4,2.9-0.9
		c0.9-0.5,1.6-1.1,2.3-1.9c0.6-0.8,0.9-1.9,0.9-3.3c0-1.4-0.3-2.4-0.8-3.2c-0.5-0.8-1.1-1.4-1.9-1.8c-0.8-0.4-1.6-0.6-2.6-0.8
		c-0.9-0.1-1.8-0.2-2.6-0.2h-2.8c-1.8,0-3.3,1.5-3.3,3.3V48.6z"/>
	<path class="st1" d="M187.6,19.6L187.6,19.6c7.2,0,13,5.8,13,13v50.5c0,7.2-5.8,13-13,13h0c-7.2,0-13-5.8-13-13V32.6
		C174.6,25.4,180.4,19.6,187.6,19.6z"/>
	<path class="st1" d="M233.4,19.6L233.4,19.6c5.8,0,11.2,3.1,14.1,8.2l17.2,30.5h0.4L264.3,32c-0.2-6.8,5.3-12.4,12-12.4h0
		c6.6,0,12,5.4,12,12v47.8c0,9.2-7.5,16.6-16.6,16.6h0c-5.9,0-11.4-3.2-14.4-8.3L241,59.6h-0.4l0.7,24.1c0.2,6.8-5.2,12.4-12,12.4h0
		c-6.6,0-12-5.4-12-12V35.8C217.2,26.8,224.4,19.6,233.4,19.6z"/>
	<path class="st1" d="M331.1,96L331.1,96c-7.1,0-12.8-5.8-12.8-12.8V44.6c0-1.8-1.5-3.3-3.3-3.3h-4.6c-6,0-10.9-4.9-10.9-10.9v0
		c0-6,4.9-10.9,10.9-10.9h41.6c6,0,10.9,4.9,10.9,10.9v0c0,6-4.9,10.9-10.9,10.9h-4.6c-1.8,0-3.3,1.5-3.3,3.3v38.6
		C344,90.3,338.2,96,331.1,96z"/>
	<path class="st1" d="M403.4,96L403.4,96c-7.6,0-14.2-5.1-16.2-12.4l-13.1-47.9c-2.2-8.1,3.9-16.1,12.3-16.1h0
		c6.1,0,11.4,4.3,12.5,10.3l6.2,32.6h0.4l6.1-29.7c1.6-7.7,8.4-13.3,16.3-13.3h0c7.8,0,14.5,5.4,16.2,13l6.7,30h0.4l6.4-33
		c1.1-5.8,6.2-10,12.1-10h0c8.1,0,14,7.8,11.9,15.6l-13.5,48.5C466.2,91,459.5,96,452,96h0c-7.7,0-14.4-5.3-16.3-12.7l-7.6-30.4
		h-0.4l-7.9,30.6C417.8,90.9,411.1,96,403.4,96z"/>
	<path class="st1" d="M509.1,19.6h27.6c5.9,0,10.7,4.8,10.7,10.7v0c0,5.9-4.8,10.7-10.7,10.7h-14.4c-1.8,0-3.3,1.5-3.3,3.3v0
		c0,1.8,1.5,3.3,3.3,3.3h13.4c5.5,0,10,4.5,10,10v0c0,5.5-4.5,10-10,10h-13.4c-1.8,0-3.3,1.5-3.3,3.3v0.5c0,1.8,1.5,3.3,3.3,3.3
		h16.3c5.9,0,10.7,4.8,10.7,10.7v0c0,5.9-4.8,10.7-10.7,10.7h-29.4c-7.9,0-14.3-6.4-14.3-14.3V33.9C494.8,26,501.2,19.6,509.1,19.6z
		"/>
	<path class="st1" d="M575.6,19.6L575.6,19.6c7.2,0,13,5.8,13,13v38.1c0,1.8,1.5,3.3,3.3,3.3h11c6.1,0,11.1,5,11.1,11.1v0
		c0,6.1-5,11.1-11.1,11.1h-26c-7.9,0-14.2-6.4-14.2-14.2V32.6C562.6,25.4,568.4,19.6,575.6,19.6z"/>
	<path class="st1" d="M638.4,19.6L638.4,19.6c7.2,0,13,5.8,13,13v38.1c0,1.8,1.5,3.3,3.3,3.3h11c6.1,0,11.1,5,11.1,11.1v0
		c0,6.1-5,11.1-11.1,11.1h-26c-7.9,0-14.2-6.4-14.2-14.2V32.6C625.4,25.4,631.2,19.6,638.4,19.6z"/>
</g>
<path class="st3" d="M781,82.1c-1.7,3.4-6.8,2.1-6.8,2.1c2.4,3.7-3,10.9-8.1,7.8s-3.2-10.7-0.4-19.8c2.2-7.2,8.9-6.7,8.4-1.5
	c-0.6,6-5.5,8.8-8,10.3c-3.2,2.1-10.5,1.9-10.5,1.9s-0.9,11.7-7.8,10.6c-6.4-1-3.7-10.8-3.7-10.8s-1.9,10.3-8,10.2
	c-4.6-0.1-6.8-5.5-6.5-19.5c0.2-8.6,7.3-8.2,7.2-3.1c-0.1,5.4-3,12.2-8.8,17.2c-2.5,2.2-4,4.3-9.1,5.4c-6.1,1.3-12.2-3.3-11.8-9.6
	c0.2-3.7,2.5-7.1,7.1-7.1c4.5-0.1,5.4,3.1,5.4,3.1"/>
<circle class="st1" cx="697.3" cy="92.4" r="2.9"/>
</svg>
